<?xml version="1.0" encoding="utf-8"?>
<!-- Generator: Adobe Illustrator 18.1.1, SVG Export Plug-In . SVG Version: 6.00 Build 0)  -->
<svg version="1.1" id="Layer_1" xmlns="http://www.w3.org/2000/svg" xmlns:xlink="http://www.w3.org/1999/xlink" x="0px" y="0px"
	 viewBox="0 0 257.2 94.1" enable-background="new 0 0 257.2 94.1" xml:space="preserve">
<g>
	<g>
		<path fill="#0084C8" d="M11.1,94H9.2v-8.2l-2.8,6H5l-2.9-6V94H0.2V81.7h1.9l3.6,7.6l3.5-7.6h1.9V94z"/>
		<path fill="#0084C8" d="M20.1,94h-1.8v-0.8c-0.6,0.6-1.4,0.9-2.3,0.9c-0.9,0-1.6-0.2-2.2-0.6c-0.6-0.5-0.9-1.1-0.9-2
			c0-0.8,0.3-1.5,0.9-1.9c0.5-0.4,1.2-0.6,2.1-0.6h2.3v-0.6c0-1.1-0.6-1.6-1.9-1.6c-0.8,0-1.5,0.3-1.9,0.8l-1.2-1.1
			c0.7-0.8,1.8-1.3,3.1-1.3c2.4,0,3.6,1,3.6,3V94z M18.3,90.8v-0.7h-2c-1,0-1.6,0.4-1.6,1.3c0,0.8,0.5,1.3,1.6,1.3
			c0.7,0,1.2-0.1,1.5-0.4C18.1,91.9,18.3,91.5,18.3,90.8z"/>
		<path fill="#0084C8" d="M30.1,94h-2.2l-2.5-4l-1.3,1.5V94h-1.8V81.7h1.8v7.6l3.3-4h2.2l-3,3.4L30.1,94z"/>
		<path fill="#0084C8" d="M38.4,90.1h-5.7c0,0.7,0.2,1.3,0.6,1.8c0.4,0.5,0.9,0.7,1.7,0.7c0.8,0,1.5-0.3,2.1-0.9l1.1,1.1
			c-0.9,0.9-2,1.4-3.3,1.4c-2.6,0-3.9-1.5-3.9-4.5c0-1.3,0.3-2.3,0.9-3.1c0.6-0.9,1.6-1.3,2.9-1.3c1.2,0,2.1,0.4,2.8,1.2
			c0.6,0.8,0.9,1.8,0.9,3V90.1z M36.6,88.9c0-0.4-0.1-0.8-0.3-1.2c-0.3-0.7-0.9-1.1-1.7-1.1c-0.6,0-1.1,0.2-1.5,0.7
			c-0.3,0.4-0.5,1-0.5,1.6H36.6z"/>
		<path fill="#0084C8" d="M51.8,83.3h-3.4V94h-1.9V83.3h-3.4v-1.7h8.6V83.3z"/>
		<path fill="#0084C8" d="M60.3,94h-1.8v-5.4c0-0.6-0.1-1-0.5-1.4c-0.3-0.4-0.7-0.5-1.3-0.5c-0.6,0-1,0.2-1.3,0.5
			C55.2,87.5,55,88,55,88.6V94h-1.8V81.7H55v4.4c0.6-0.7,1.4-1,2.3-1c0.9,0,1.7,0.3,2.2,0.9c0.5,0.6,0.8,1.4,0.8,2.3V94z"/>
		<path fill="#0084C8" d="M69.6,90.1h-5.7c0,0.7,0.2,1.3,0.6,1.8c0.4,0.5,0.9,0.7,1.7,0.7c0.8,0,1.5-0.3,2.1-0.9l1.1,1.1
			c-0.9,0.9-2,1.4-3.3,1.4c-2.6,0-3.9-1.5-3.9-4.5c0-1.3,0.3-2.3,0.9-3.1c0.6-0.9,1.6-1.3,2.8-1.3c1.2,0,2.1,0.4,2.8,1.2
			c0.6,0.8,0.9,1.8,0.9,3V90.1z M67.8,88.9c0-0.4-0.1-0.8-0.2-1.2c-0.3-0.7-0.9-1.1-1.7-1.1c-0.6,0-1.1,0.2-1.5,0.7
			c-0.3,0.4-0.5,1-0.5,1.6H67.8z"/>
		<path fill="#0084C8" d="M84.1,90.5c0,1.1-0.3,2-1,2.6c-0.7,0.6-1.6,0.9-2.7,0.9h-5V81.7h4.8c1.1,0,2,0.3,2.7,0.9
			c0.7,0.6,1,1.4,1,2.5c0,1.2-0.6,2.1-1.7,2.6C83.5,88.1,84.1,89.1,84.1,90.5z M82,85.1c0-0.6-0.2-1-0.6-1.3
			c-0.4-0.3-0.8-0.4-1.4-0.4h-2.8v3.5H80C81.4,86.9,82,86.3,82,85.1z M82.2,90.4c0-0.6-0.2-1.1-0.6-1.4c-0.4-0.3-0.9-0.5-1.5-0.5
			h-2.9v3.8h2.9c0.6,0,1.1-0.2,1.5-0.5C82,91.5,82.2,91,82.2,90.4z"/>
		<path fill="#0084C8" d="M93.2,90.1h-5.7c0,0.7,0.2,1.3,0.6,1.8c0.4,0.5,0.9,0.7,1.7,0.7c0.8,0,1.5-0.3,2.1-0.9l1.1,1.1
			c-0.9,0.9-2,1.4-3.3,1.4c-2.6,0-3.9-1.5-3.9-4.5c0-1.3,0.3-2.3,0.9-3.1c0.6-0.9,1.6-1.3,2.9-1.3c1.2,0,2.1,0.4,2.8,1.2
			c0.6,0.8,0.9,1.8,0.9,3V90.1z M91.5,88.9c0-0.4-0.1-0.8-0.2-1.2c-0.3-0.7-0.9-1.1-1.7-1.1c-0.6,0-1.1,0.2-1.5,0.7
			c-0.3,0.4-0.5,1-0.5,1.6H91.5z"/>
		<path fill="#0084C8" d="M101.6,91.3c0,1-0.4,1.7-1.2,2.2c-0.7,0.4-1.5,0.6-2.5,0.6c-1.6,0-2.8-0.4-3.7-1.3l1.2-1.2
			c0.6,0.6,1.4,0.9,2.5,0.9c1.3,0,1.9-0.4,1.9-1.2c0-0.6-0.4-1-1.2-1l-1.4-0.1c-0.9-0.1-1.5-0.3-1.9-0.6c-0.5-0.4-0.7-1-0.7-1.8
			c0-0.9,0.3-1.5,1-2c0.6-0.4,1.4-0.7,2.3-0.7c1.4,0,2.5,0.3,3.2,1l-1.1,1.1c-0.5-0.4-1.2-0.6-2.2-0.6c-1.1,0-1.6,0.4-1.6,1.1
			c0,0.6,0.4,0.9,1.2,1l1.4,0.1C100.7,88.8,101.6,89.6,101.6,91.3z"/>
		<path fill="#0084C8" d="M107,94h-1.1c-0.7,0-1.3-0.2-1.7-0.7c-0.4-0.5-0.7-1-0.7-1.8v-4.8h-1v-1.3h1v-2.7h1.8v2.7h1.7v1.3h-1.7
			v4.7c0,0.7,0.3,1,1,1h0.7V94z"/>
		<path fill="#0084C8" d="M120.6,83.3h-6v3.8h5.1v1.7h-5.1V94h-1.9V81.7h7.9V83.3z"/>
		<path fill="#0084C8" d="M129.1,89.6c0,3-1.2,4.5-3.7,4.5c-2.4,0-3.6-1.5-3.6-4.5c0-3,1.2-4.5,3.6-4.5c1.3,0,2.2,0.4,2.8,1.3
			C128.8,87.2,129.1,88.2,129.1,89.6z M127.3,89.6c0-1.9-0.6-2.9-1.9-2.9c-1.2,0-1.9,1-1.9,2.9c0,1.9,0.6,2.9,1.9,2.9
			C126.7,92.5,127.3,91.5,127.3,89.6z"/>
		<path fill="#0084C8" d="M137.2,85.9l-1.3,1.3c-0.4-0.4-0.8-0.6-1.3-0.6c-0.5,0-1,0.2-1.3,0.6c-0.3,0.4-0.5,0.8-0.5,1.4V94H131
			v-8.8h1.7v1c0.5-0.7,1.3-1.1,2.3-1.1C135.9,85.1,136.6,85.4,137.2,85.9z"/>
		<path fill="#0084C8" d="M149.8,90.5c0,1.2-0.4,2.1-1.4,2.8c-0.8,0.6-1.8,0.9-3.1,0.9c-1.8,0-3.3-0.5-4.4-1.6l1.2-1.2
			c0.8,0.8,1.8,1.2,3.1,1.2c1.7,0,2.5-0.6,2.5-1.9c0-1-0.6-1.6-1.8-1.8l-1.5-0.2c-2.2-0.3-3.2-1.4-3.2-3.3c0-1.2,0.4-2.1,1.2-2.7
			c0.7-0.6,1.7-0.9,2.9-0.9c1.5,0,2.8,0.5,3.8,1.4l-1.2,1.2c-0.7-0.6-1.6-1-2.7-1c-0.6,0-1.2,0.2-1.6,0.5c-0.5,0.3-0.7,0.8-0.7,1.5
			c0,1,0.6,1.5,1.9,1.7l1.4,0.2C148.7,87.3,149.8,88.5,149.8,90.5z"/>
		<path fill="#0084C8" d="M164.1,94h-1.8v-5.3c0-1.3-0.6-2-1.7-2c-0.6,0-1,0.2-1.3,0.5c-0.3,0.3-0.5,0.8-0.5,1.3V94H157v-5.3
			c0-1.3-0.6-2-1.8-2c-0.6,0-1.1,0.2-1.4,0.5c-0.3,0.4-0.5,0.8-0.5,1.4V94h-1.7v-8.8h1.7v0.9c0.6-0.7,1.4-1,2.3-1
			c1.1,0,1.9,0.4,2.5,1.3c0.7-0.8,1.6-1.3,2.7-1.3c1,0,1.8,0.3,2.3,0.9c0.6,0.6,0.8,1.4,0.8,2.4V94z"/>
		<path fill="#0084C8" d="M172.8,94h-1.8v-0.8c-0.6,0.6-1.4,0.9-2.3,0.9c-0.9,0-1.6-0.2-2.2-0.6c-0.6-0.5-0.9-1.1-0.9-2
			c0-0.8,0.3-1.5,0.9-1.9c0.5-0.4,1.2-0.6,2.1-0.6h2.3v-0.6c0-1.1-0.6-1.6-1.9-1.6c-0.8,0-1.5,0.3-1.9,0.8l-1.2-1.1
			c0.7-0.8,1.8-1.3,3.1-1.3c2.4,0,3.6,1,3.6,3V94z M171.1,90.8v-0.7h-2c-1,0-1.6,0.4-1.6,1.3c0,0.8,0.5,1.3,1.6,1.3
			c0.7,0,1.2-0.1,1.5-0.4C170.9,91.9,171.1,91.5,171.1,90.8z"/>
		<path fill="#0084C8" d="M181.3,85.9l-1.3,1.3c-0.4-0.4-0.8-0.6-1.3-0.6c-0.5,0-1,0.2-1.3,0.6c-0.3,0.4-0.5,0.8-0.5,1.4V94h-1.7
			v-8.8h1.7v1c0.5-0.7,1.3-1.1,2.3-1.1C180,85.1,180.7,85.4,181.3,85.9z"/>
		<path fill="#0084C8" d="M185.9,94h-1.1c-0.7,0-1.3-0.2-1.7-0.7c-0.4-0.5-0.7-1-0.7-1.8v-4.8h-1v-1.3h1v-2.7h1.8v2.7h1.7v1.3h-1.7
			v4.7c0,0.7,0.3,1,1,1h0.7V94z"/>
		<path fill="#0084C8" d="M200.4,90.5c0,1.1-0.3,2-1,2.6c-0.7,0.6-1.6,0.9-2.7,0.9h-5V81.7h4.8c1.1,0,2,0.3,2.7,0.9
			c0.7,0.6,1,1.4,1,2.5c0,1.2-0.6,2.1-1.7,2.6C199.7,88.1,200.4,89.1,200.4,90.5z M198.3,85.1c0-0.6-0.2-1-0.6-1.3
			c-0.4-0.3-0.8-0.4-1.4-0.4h-2.8v3.5h2.8C197.6,86.9,198.3,86.3,198.3,85.1z M198.5,90.4c0-0.6-0.2-1.1-0.6-1.4
			c-0.4-0.3-0.9-0.5-1.5-0.5h-2.9v3.8h2.9c0.6,0,1.1-0.2,1.5-0.5C198.3,91.5,198.5,91,198.5,90.4z"/>
		<path fill="#0084C8" d="M209.5,94h-1.8v-0.9c-0.6,0.7-1.4,1-2.3,1c-1,0-1.7-0.3-2.2-0.9c-0.5-0.6-0.8-1.4-0.8-2.4v-5.6h1.8v5.3
			c0,0.6,0.2,1.1,0.4,1.4c0.3,0.4,0.7,0.5,1.3,0.5c0.6,0,1-0.2,1.3-0.5c0.3-0.3,0.5-0.8,0.5-1.4v-5.3h1.8V94z"/>
		<path fill="#0084C8" d="M218.4,91.3c0,1-0.4,1.7-1.2,2.2c-0.7,0.4-1.5,0.6-2.5,0.6c-1.6,0-2.8-0.4-3.7-1.3l1.2-1.2
			c0.6,0.6,1.4,0.9,2.5,0.9c1.3,0,1.9-0.4,1.9-1.2c0-0.6-0.4-1-1.2-1l-1.4-0.1c-0.9-0.1-1.5-0.3-1.9-0.6c-0.5-0.4-0.7-1-0.7-1.8
			c0-0.9,0.3-1.5,1-2c0.6-0.4,1.4-0.7,2.3-0.7c1.4,0,2.5,0.3,3.2,1l-1.1,1.1c-0.5-0.4-1.2-0.6-2.2-0.6c-1.1,0-1.6,0.4-1.6,1.1
			c0,0.6,0.4,0.9,1.2,1l1.4,0.1C217.5,88.8,218.4,89.6,218.4,91.3z"/>
		<path fill="#0084C8" d="M221.9,83.5H220v-1.9h1.9V83.5z M221.8,94h-1.8v-8.8h1.8V94z"/>
		<path fill="#0084C8" d="M231.3,94h-1.8v-5.3c0-1.3-0.6-2-1.8-2c-0.6,0-1,0.2-1.4,0.5c-0.3,0.4-0.5,0.8-0.5,1.4V94h-1.7v-8.8h1.7
			v0.9c0.6-0.7,1.4-1,2.3-1c1,0,1.7,0.3,2.3,0.9c0.5,0.6,0.8,1.4,0.8,2.3V94z"/>
		<path fill="#0084C8" d="M240.6,90.1h-5.7c0,0.7,0.2,1.3,0.6,1.8c0.4,0.5,0.9,0.7,1.7,0.7c0.8,0,1.5-0.3,2.1-0.9l1.1,1.1
			c-0.9,0.9-2,1.4-3.3,1.4c-2.6,0-3.9-1.5-3.9-4.5c0-1.3,0.3-2.3,0.9-3.1c0.6-0.9,1.6-1.3,2.8-1.3c1.2,0,2.1,0.4,2.8,1.2
			c0.6,0.8,0.9,1.8,0.9,3V90.1z M238.8,88.9c0-0.4-0.1-0.8-0.2-1.2c-0.3-0.7-0.9-1.1-1.7-1.1c-0.6,0-1.1,0.2-1.5,0.7
			c-0.3,0.4-0.5,1-0.5,1.6H238.8z"/>
		<path fill="#0084C8" d="M249,91.3c0,1-0.4,1.7-1.2,2.2c-0.7,0.4-1.5,0.6-2.5,0.6c-1.6,0-2.8-0.4-3.7-1.3l1.1-1.2
			c0.6,0.6,1.4,0.9,2.5,0.9c1.3,0,1.9-0.4,1.9-1.2c0-0.6-0.4-1-1.2-1l-1.4-0.1c-0.8-0.1-1.5-0.3-1.9-0.6c-0.5-0.4-0.7-1-0.7-1.8
			c0-0.9,0.3-1.5,1-2c0.6-0.4,1.4-0.7,2.3-0.7c1.4,0,2.5,0.3,3.2,1l-1.1,1.1c-0.5-0.4-1.2-0.6-2.2-0.6c-1.1,0-1.6,0.4-1.6,1.1
			c0,0.6,0.4,0.9,1.2,1l1.4,0.1C248.1,88.8,249,89.6,249,91.3z"/>
		<path fill="#0084C8" d="M257.2,91.3c0,1-0.4,1.7-1.2,2.2c-0.7,0.4-1.5,0.6-2.5,0.6c-1.6,0-2.8-0.4-3.7-1.3l1.2-1.2
			c0.6,0.6,1.4,0.9,2.5,0.9c1.3,0,1.9-0.4,1.9-1.2c0-0.6-0.4-1-1.2-1l-1.4-0.1c-0.9-0.1-1.5-0.3-1.9-0.6c-0.5-0.4-0.7-1-0.7-1.8
			c0-0.9,0.3-1.5,1-2c0.6-0.4,1.4-0.7,2.3-0.7c1.4,0,2.5,0.3,3.2,1l-1.1,1.1c-0.5-0.4-1.2-0.6-2.2-0.6c-1.1,0-1.6,0.4-1.6,1.1
			c0,0.6,0.4,0.9,1.2,1l1.4,0.1C256.3,88.8,257.2,89.6,257.2,91.3z"/>
	</g>
	<g>
		<path fill="#0084C8" d="M88.5,26.2c-3.1-4.7-8.4-7.5-14.1-7.5c-3.7,0-7.3,1.2-10.2,3.4c3.2-1.3,6.9-1.5,10.4-0.4
			c5.9,2,9.9,7.4,9.9,13.6c0,5.5-3.2,10.5-8.2,12.9c0.9,0.2,1.8,0.3,2.7,0.3c3.7,0,7.1-1.5,9.7-4.1c1.8-2.6,2.7-5.8,2.7-9.1
			C91.3,32.1,90.3,28.9,88.5,26.2z"/>
		<path fill="#0084C8" d="M73.9,50C68,48,64,42.6,64,36.5c0-5.5,3.2-10.5,8.2-12.9c-0.9-0.2-1.8-0.3-2.7-0.3c-3.7,0-7.1,1.5-9.7,4.1
			c-1.8,2.6-2.7,5.8-2.7,9.1c0,3.3,1,6.4,2.8,9.2c3.1,4.7,8.4,7.5,14.1,7.5c3.7,0,7.3-1.2,10.2-3.4C81,51,77.3,51.2,73.9,50z"/>
	</g>
	<path fill="#0084C8" d="M14.2,24.5 M35.2,24.6 M35.2,24.6c-5.7,0-7.9,3.2-7.9,3.2c0.5,1.3,0.6,4.3,0.6,4.3v21h-6.4V34
		c0-3.5-1.1-9.5-7.3-9.5c-5.6,0-7.8,2.3-7.8,2.3v26.3H0v-36l4.8,4c0,0,2.4-2.2,9.4-2.2c7,0,10.9,3.7,10.9,3.7s2.4-3.7,10.9-3.7
		c4.2,0,8.4,1.2,10.4,3.7c2,2.5,2.9,5.8,2.9,9.9v20.6h-6.4v-19C42.9,34.1,42.7,24.6,35.2,24.6z"/>
	<path fill="#0084C8" d="M195.7,36.5c-0.1,1.6,0.1,3.1,0.6,4.5c0.5,1.4,1.3,2.5,2.3,3.5c1,1,2.2,1.8,3.6,2.3
		c1.4,0.6,2.9,0.9,4.5,0.9c1.8,0,3.5-0.3,5-1c1.5-0.7,3.2-1.6,4.8-2.9l2.9,4.8c-2,1.5-4,2.6-6.2,3.4c-2.2,0.8-4.5,1.2-7.1,1.2
		c-2.6,0-4.9-0.4-7-1.3c-2.1-0.9-3.9-2.1-5.4-3.7c-1.5-1.6-2.6-3.4-3.5-5.6c-0.8-2.2-1.2-4.5-1.2-7c0-2.4,0.4-4.7,1.2-6.8
		c0.8-2.1,1.8-3.8,3.2-5.3c1.4-1.5,3-2.7,5-3.5c2-0.8,4.1-1.2,6.5-1.2c1.8,0,3.5,0.3,5.4,1c1.8,0.7,3.4,1.7,4.9,3.1
		c1.4,1.4,2.6,3.3,3.5,5.5c0.9,2.2,1.4,4.9,1.4,8H195.7z M210.1,26.3c-1.3-1.3-3.1-1.9-5.2-1.9c-2.1,0-4,0.6-5.5,1.9
		c-1.5,1.3-2.5,3-3,5.2h16.4C212.3,29.3,211.4,27.6,210.1,26.3z"/>
	<path fill="#0084C8" d="M243.6,18.8c4.3,0,7.3,1.2,9.8,3.5c2.5,2.3,3.7,5.8,3.7,10.6v20.3h-6.4V34c0-3.1-0.7-5.4-2.1-7.1
		c-1.4-1.7-3.3-2.5-5.6-2.5c-1.9,0-3.6,0.2-5,0.5c-1.4,0.3-2.6,0.8-3.6,1.4v26.8H228V17l4.7,3.9C236.7,18.8,243.6,18.8,243.6,18.8"
		/>
	<path fill="#0084C8" d="M130.6,35.4c0,2.8-0.5,4.6-1.4,6.9c-0.9,2.3-2.2,4.2-3.8,5.8c-1.7,1.6-3.6,2.9-6,3.7
		c-2.3,0.9-4.9,1.3-7.8,1.3H99.1V5.4l6.5-5.4v18.9h9.5c2.3,0,4.4,0.3,6.3,1.2c2.4,1.1,5,3.2,6.6,5.8
		C129.9,28.9,130.6,32.7,130.6,35.4z M124,35.6c0-5.2-4.6-11.1-9.3-11.1c-1.6,0-9.1,0-9.1,0v23h6.3C120.2,46.9,124,42.2,124,35.6z"
		/>
	<path fill="#0084C8" d="M138.4,53.1V19.7l6.5-5.4v38.8H138.4z"/>
	<g>
		<polygon fill="#0084C8" points="144.9,0 138.4,5.4 138.4,13.6 144.9,8.2 		"/>
	</g>
	<path fill="#0084C8" d="M163.5,49.6c-0.7,0-1.3-0.9-1.3-1.4c0-0.4,0.4-1,1.2-1.3l5.3-0.5c3.7-0.4,6.8-1.8,9.1-4.3
		c2.3-2.5,3.5-5.7,3.5-9.3c0-3.4-0.8-6.1-2.3-8.3l6.5-5.5l-18.7,0c-3.9,0-7.2,1.3-9.9,3.8c-2.7,2.6-4,5.8-4,9.6
		c0,5.7,2.4,9.8,7.1,12.3c-1.6,0.9-2.2,2.1-2.2,3.2c0,0.7,0.7,2.1-1.6,4c-2.3,1.9-4.3,3.4-4.3,7.7c0,6.1,4.1,10.6,15.8,10.6
		c11.7,0,15.5-5.9,15.5-10.6C183.1,48.1,167.8,49.6,163.5,49.6z M167.5,70.2 M158.9,32.8c0-4.7,3.6-8.5,8.1-8.5
		c4.5,0,8.1,3.8,8.1,8.5c0,4.7-3.6,8.5-8.1,8.5C162.5,41.3,158.9,37.5,158.9,32.8z M167.4,64.8 M176.8,59.6c0,3.6-3.9,5.2-9.4,5.2
		c-5.5,0-9.5-1.5-9.5-5.2c0-3.5,3.7-5.1,9.4-5.1C173.6,54.5,176.8,56,176.8,59.6z M167.3,54.5"/>
</g>
</svg>
